<?xml version="1.0" encoding="UTF-8" standalone="no"?>
<svg
   xmlns:dc="http://purl.org/dc/elements/1.1/"
   xmlns:cc="http://creativecommons.org/ns#"
   xmlns:rdf="http://www.w3.org/1999/02/22-rdf-syntax-ns#"
   xmlns:svg="http://www.w3.org/2000/svg"
   xmlns="http://www.w3.org/2000/svg"
   xmlns:sodipodi="http://sodipodi.sourceforge.net/DTD/sodipodi-0.dtd"
   xmlns:inkscape="http://www.inkscape.org/namespaces/inkscape"
   version="1.1"
   x="0px"
   y="0px"
   viewBox="0 0 90 90"
   enable-background="new 0 0 90 90"
   xml:space="preserve"
   id="svg2"
   inkscape:version="0.91 r"
   sodipodi:docname="icon.svg"
   width="90"
   height="90"
   inkscape:export-filename="/home/niklas/Projects/myoctober/plugins/nsrosenqvist/assetrevisions/assets/icon.png"
   inkscape:export-xdpi="90"
   inkscape:export-ydpi="90"><metadata
     id="metadata22"><rdf:RDF><cc:Work
         rdf:about=""><dc:format>image/svg+xml</dc:format><dc:type
           rdf:resource="http://purl.org/dc/dcmitype/StillImage" /><dc:title></dc:title></cc:Work></rdf:RDF></metadata><defs
     id="defs20" /><sodipodi:namedview
     pagecolor="#ffffff"
     bordercolor="#666666"
     borderopacity="1"
     objecttolerance="10"
     gridtolerance="10"
     guidetolerance="10"
     inkscape:pageopacity="0"
     inkscape:pageshadow="2"
     inkscape:window-width="1600"
     inkscape:window-height="847"
     id="namedview18"
     showgrid="false"
     inkscape:zoom="5.9334116"
     inkscape:cx="14.775852"
     inkscape:cy="55.560469"
     inkscape:window-x="0"
     inkscape:window-y="25"
     inkscape:window-maximized="1"
     inkscape:current-layer="svg2" /><path
     d="m 39.375,78.750082 c -18.638,0 -33.7500001,-15.111 -33.7500001,-33.75 0,-18.64 15.1120001,-33.75 33.7500001,-33.75 l 0,-5.625 C 17.627,5.625082 -5.0000004e-8,23.253082 -5.0000004e-8,45.000082 -5.0000004e-8,66.747082 17.627,84.375082 39.375,84.375082 c 21.747,0 39.375,-17.628 39.375,-39.375 l -5.625,0 c 0,18.638 -15.111,33.75 -33.75,33.75 z"
     id="path4"
     inkscape:connector-curvature="0"
     style="clip-rule:evenodd;fill-rule:evenodd" /><g
     id="g6"
     transform="translate(-5.0000002e-8,-2.812918)"><polygon
       points="28.125,59.063 39.375,59.063 28.125,47.813 "
       id="polygon8"
       style="clip-rule:evenodd;fill-rule:evenodd" /><rect
       x="29.148001"
       y="24.323"
       transform="matrix(0.7071,-0.7071,0.7071,0.7071,-6.7417,48.2808)"
       width="51.521999"
       height="15.91"
       id="rect10"
       style="clip-rule:evenodd;fill-rule:evenodd" /></g><path
     d="m 73.125,39.375082 -11.25,11.25 28.125,0 -14.062,-14.063 -2.813,2.813 z"
     id="path12"
     inkscape:connector-curvature="0"
     style="clip-rule:evenodd;fill-rule:evenodd" /></svg>